:SAMPLES-PER-SECOND 30
:FULLY-SPECIFIED
:DEGREES
549
root  -64.8347 40.1248 0.668346 -174.835 -82.8139 167.502
RightUpLeg  -20.4527 1.48088 -7.13672
RightLeg  45.757 -1.40278 -1.87062
RightFoot  -8.3011 -0.290779 8.81455
RightToes  -3.0268e-009 0 -3.6325e-017
Spine  11.2207 0.234654 -5.74428
Spine1  6.55979 -0.909756 1.63155
HEad  -17.3844 5.15264 -1.40678
LeftShoulder1  -0.818845 5.62439 -32.47
LeftArm  -3.32946 3.19897 -42.2965
LeftForeArm  42.4964 -68.0694 -23.8152
LeftHand  -0.0214169 6.06608 1.59815
RightShoulder  -1.11523 -6.42732 31.5899
RightArm  21.6571 -14.9218 38.5928
RightForeArm  18.3501 11.3289 7.65925
RightHand  -0.18946 4.40802 -2.43118
LeftUpLeg  -3.51169 5.02868 -2.33043
LeftLeg  17.1006 0.931198 0.715118
LeftFoot  -5.67844 -0.235606 5.46268
LeftToes  2.52475e-009 -1.26109e-010 3.16044e-011
550
root  -65.6508 40.1285 0.684445 -171.743 -83.372 165.023
RightUpLeg  -21.3951 0.813558 -7.13245
RightLeg  37.4506 -0.689737 -0.820211
RightFoot  -8.00317 -0.329795 9.42951
RightToes  -3.0268e-009 0 -3.6325e-017
Spine  10.7648 -0.534702 -7.08463
Spine1  6.40108 -2.01907 3.01949
HEad  -17.7436 6.19651 -1.59544
LeftShoulder1  -0.916367 5.91694 -31.7966
LeftArm  -5.65944 3.11523 -42.2315
LeftForeArm  48.3078 -72.7564 -31.9934
LeftHand  -0.0168674 5.74912 3.36206
RightShoulder  -1.2118 -6.65252 31.958
RightArm  22.039 -18.2912 35.7899
RightForeArm  18.7962 12.0196 7.16022
RightHand  -0.00124898 3.31986 -0.254007
LeftUpLeg  -2.80133 4.84593 -2.6772
LeftLeg  16.9896 0.370514 0.543439
LeftFoot  -6.97979 -0.17837 5.78166
LeftToes  2.52475e-009 -1.26109e-010 3.16044e-011
551
root  -66.5078 40.135 0.698106 -166.609 -83.3253 159.926
RightUpLeg  -21.1115 0.876621 -7.54834
RightLeg  28.6241 -0.017523 -0.234596
RightFoot  -6.88979 -0.423508 9.65128
RightToes  -3.0268e-009 0 -3.6325e-017
Spine  10.0496 -0.851195 -7.40925
Spine1  7.12172 -2.29264 3.02559
HEad  -18.9127 5.65424 -1.58371
LeftShoulder1  -0.933047 5.95515 -31.893
LeftArm  -7.23568 2.99457 -41.8293
LeftForeArm  54.8761 -75.568 -40.0852
LeftHand  -0.0192187 5.59112 3.87302
RightShoulder  -1.26346 -6.80625 31.7317
RightArm  19.6595 -21.6422 34.3685
RightForeArm  16.8043 11.7316 6.61209
RightHand  -0.170284 3.9759 -2.39744
LeftUpLeg  -1.24382 4.98065 -3.40794
LeftLeg  16.7315 0.688446 0.559045
LeftFoot  -8.21785 -0.108878 5.78829
LeftToes  2.52475e-009 -1.26109e-010 3.16044e-011
552
root  -67.3634 40.1066 0.704019 -160.508 -83.4445 154.197
RightUpLeg  -20.6892 0.153393 -7.8993
RightLeg  20.0875 0.833551 0.13837
RightFoot  -5.7503 -0.532013 10.0717
RightToes  -3.0268e-009 0 -3.6325e-017
Spine  9.18095 -1.17018 -6.85609
Spine1  7.51507 -2.24408 2.12428
HEad  -18.2245 4.73755 -0.897096
LeftShoulder1  -0.934826 5.96205 -31.8296
LeftArm  -7.52404 3.44297 -41.508
LeftForeArm  59.9086 -76.8489 -45.2336
LeftHand  -0.0253303 5.41356 3.29786
RightShoulder  -1.37632 -7.06111 32.1863
RightArm  16.4781 -24.4337 33.2457
RightForeArm  17.2022 11.0606 5.78997
RightHand  -0.130834 3.94747 -1.88481
LeftUpLeg  -0.0699808 4.83649 -4.08233
LeftLeg  16.4124 0.50726 0.434241
LeftFoot  -9.5273 -0.0307796 5.58592
LeftToes  2.52475e-009 -1.26109e-010 3.16044e-011
553
root  -68.2106 40.0842 0.680164 -155.828 -83.631 149.636
RightUpLeg  -19.6881 -1.75988 -7.41936
RightLeg  12.4072 2.88708 -0.00934692
RightFoot  -4.44297 -0.609418 9.60411
RightToes  -3.0268e-009 0 -3.6325e-017
Spine  9.31519 -1.28624 -6.89154
Spine1  6.94341 -2.46235 2.73626
HEad  -16.578 5.02233 -1.16759
LeftShoulder1  -1.12108 6.39656 -32.585
LeftArm  -6.85122 4.77446 -40.6654
LeftForeArm  59.3419 -76.8036 -45.2435
LeftHand  -0.0214522 5.56125 3.43116
RightShoulder  -1.36796 -7.04997 32.0691
RightArm  13.9328 -26.3404 32.6532
RightForeArm  17.8339 9.71509 5.08931
RightHand  -0.0653708 3.26257 -1.11952
LeftUpLeg  1.48545 4.67565 -4.52038
LeftLeg  15.8675 0.320162 0.368338
LeftFoot  -10.7544 0.0361404 5.5537
LeftToes  2.52475e-009 -1.26109e-010 3.16044e-011
